<svg xmlns="http://www.w3.org/2000/svg" viewBox="0 0 96 96" fill="none" role="img" aria-labelledby="title desc">
  <title id="title">Ícone de Workspace</title>
  <desc id="desc">Grimório aberto representando organização de conhecimento.</desc>
  <defs>
    <linearGradient id="gold" x1="20" y1="16" x2="76" y2="80" gradientUnits="userSpaceOnUse">
      <stop stop-color="#E1C98E"/>
      <stop offset="1" stop-color="#806334"/>
    </linearGradient>
  </defs>
  <path d="M17 28c10-4 20-3 31 3 11-6 21-7 31-3v44c-10-4-20-3-31 3-11-6-21-7-31-3V28Z" fill="#120D19" stroke="url(#gold)" stroke-width="2.5" stroke-linejoin="round"/>
  <path d="M48 31v41M25 36c7 0 14 2 23 7M71 36c-7 0-14 2-23 7" stroke="#B996EE" stroke-width="1.8" stroke-linecap="round"/>
  <path d="M32 23h32" stroke="#E1C98E" stroke-width="2" stroke-linecap="round" opacity=".8"/>
  <circle cx="48" cy="49" r="5.5" stroke="#C8A7F4" stroke-width="2"/>
  <circle cx="48" cy="49" r="2.2" fill="#E1C98E"/>
</svg>
